<svg width="108" height="24" viewBox="0 0 108 24" fill="none" xmlns="http://www.w3.org/2000/svg">
<path d="M12.2185 0.0871347C18.98 0.142087 24.4135 5.51105 24.3719 12.0959C24.3308 18.6114 18.7784 23.9559 12.1034 23.9052C5.37119 23.854 -0.0683824 18.4367 0.000649861 11.852C0.0687209 5.36257 5.60319 0.0333369 12.2185 0.0871347Z" fill="#C41230"/>
<path d="M107.652 12.6961C107.652 14.3863 107.716 16.0795 107.634 17.7661C107.551 19.4771 107.262 21.1509 105.861 22.4116C104.927 23.2524 103.781 23.5785 102.582 23.8024C100.423 24.2055 98.3549 24.051 96.4932 22.785C95.8585 22.3533 95.3865 21.7887 95.591 20.9617C95.8262 20.0095 96.655 19.6365 97.7742 19.9674C98.758 20.2581 99.7004 20.686 100.779 20.582C101.433 20.5187 102.057 20.3728 102.657 20.1338C103.044 19.9797 103.352 19.7082 103.558 19.3407C103.701 19.0875 103.877 18.7861 103.715 18.5441C103.543 18.2868 103.29 18.5897 103.078 18.6358C100.422 19.2112 97.5905 18.3075 96.3728 16.233C95.8752 15.3854 95.6502 14.4636 95.6112 13.5021C95.5206 11.2671 95.3976 9.02745 95.6832 6.79946C95.815 5.77029 96.592 5.20986 97.5815 5.29047C98.579 5.37176 99.1657 6.04428 99.2574 7.08064C99.4329 9.05765 99.2556 11.0391 99.37 13.0138C99.4714 14.7643 101.172 15.6494 102.761 14.8268C103.587 14.3991 103.897 13.6846 103.904 12.8254C103.919 10.9896 103.903 9.15352 103.914 7.31764C103.919 6.5903 104.161 5.97107 104.812 5.53286C105.844 4.83857 107.619 5.36454 107.646 7.36318C107.67 9.14052 107.651 10.9184 107.652 12.6961Z" fill="#222121"/>
<path d="M86.8958 12.1422C86.8965 13.686 86.8866 15.2297 86.9005 16.7734C86.9076 17.5545 86.6661 18.1916 85.9343 18.5799C85.2003 18.9695 84.4819 18.8647 83.8811 18.3527C83.6017 18.1145 83.4256 18.217 83.1948 18.3109C81.0376 19.1886 78.9636 18.9267 77.0547 17.7125C75.5851 16.7778 74.9771 15.2799 74.9227 13.6218C74.8539 11.5267 74.8951 9.4279 74.9047 7.33077C74.9102 6.1006 75.6347 5.21546 76.6839 5.2791C77.9272 5.35436 78.4152 5.76195 78.6197 7.2103C78.7126 7.86798 78.6407 8.54806 78.6414 9.21793C78.6425 10.4122 78.6349 11.6065 78.6438 12.8006C78.6543 14.1802 79.5947 15.1324 80.9423 15.1455C82.1763 15.1573 83.1542 14.1572 83.1613 12.8511C83.1708 11.1035 83.1468 9.35559 83.1717 7.60823C83.1829 6.81742 83.3594 6.0471 84.0721 5.55061C84.6414 5.15401 85.3072 5.11821 85.9093 5.43403C86.5826 5.78705 86.8951 6.40611 86.8951 7.16134C86.8951 8.82163 86.8951 10.4819 86.8958 12.1422Z" fill="#222121"/>
<path d="M89.412 9.31791C89.413 6.93233 89.3921 4.54654 89.4207 2.1613C89.4386 0.673991 90.3022 -0.107232 91.6146 0.0881166C92.5464 0.226802 93.088 0.921684 93.1324 2.13299C93.1687 3.1209 93.1433 4.11098 93.1434 5.10013C93.1439 8.76569 93.1391 12.4313 93.149 16.097C93.1501 16.5674 93.1069 17.0263 92.9657 17.471C92.7316 18.2079 92.0951 18.631 91.2896 18.6433C90.4361 18.6563 89.888 18.2458 89.5941 17.4943C89.4344 17.0861 89.4039 16.6534 89.4059 16.2127C89.4165 13.9145 89.4109 11.6163 89.412 9.31791Z" fill="#222121"/>
<path d="M7.3166 11.9208C7.3166 11.1345 7.30987 10.3483 7.31927 9.56226C7.32464 9.11259 7.34409 8.61182 7.98486 8.64325C8.60082 8.67345 8.60488 9.16879 8.60563 9.61837C8.60799 10.987 8.59728 12.3556 8.60873 13.7241C8.62739 15.9425 10.0955 17.458 12.2026 17.4507C14.2991 17.4436 15.7835 15.8963 15.7973 13.7011C15.8015 13.0315 15.8018 12.3617 15.799 11.692C15.7972 11.2829 15.981 10.9865 16.4083 10.9825C16.829 10.9785 17.0574 11.2721 17.0498 11.6722C17.028 12.8042 17.1626 13.9422 16.898 15.0658C16.3611 17.3453 14.209 18.8333 11.6917 18.6535C9.46823 18.4948 7.56342 16.6575 7.39529 14.4503C7.33141 13.6114 7.38489 12.764 7.38489 11.9207C7.36217 11.9208 7.33937 11.9208 7.3166 11.9208Z" fill="#FFFDFD"/>
<path d="M14.915 10.4643C14.915 11.5405 14.9243 12.6169 14.9128 13.693C14.896 15.2793 13.7679 16.4603 12.2385 16.511C10.7401 16.5608 9.45746 15.3896 9.42452 13.8243C9.37738 11.5854 9.41084 9.34485 9.41172 7.10505C9.41189 6.6653 9.50316 6.24976 10.0559 6.23779C10.6408 6.22517 10.6797 6.66676 10.6801 7.09539C10.682 8.98614 10.6812 10.8768 10.6814 12.7676C10.6814 12.9712 10.6785 13.1749 10.682 13.3785C10.703 14.5927 11.2407 15.2805 12.1683 15.2823C13.0929 15.2839 13.6494 14.578 13.6522 13.3867C13.6571 11.3504 13.653 9.31427 13.6622 7.27808C13.6643 6.83067 13.5365 6.23693 14.2544 6.23176C15.0108 6.22628 14.9104 6.83619 14.9132 7.32264C14.9193 8.36986 14.9151 9.41703 14.915 10.4643Z" fill="white"/>
<path d="M11.5283 9.81047C11.5283 8.61691 11.531 7.42339 11.5268 6.22983C11.5253 5.79846 11.5494 5.3615 12.1226 5.33746C12.7667 5.31035 12.7843 5.77653 12.7835 6.2421C12.7794 8.60006 12.7753 10.9581 12.787 13.3161C12.7892 13.7796 12.6822 14.1834 12.1525 14.1779C11.6264 14.1726 11.5177 13.7637 11.5235 13.3038C11.5381 12.1393 11.5283 10.9749 11.5283 9.81047Z" fill="#FFFDFD"/>
<path d="M41.1826 10.0036C40.086 6.38446 36.0232 4.33321 32.2822 5.54285C31.5253 5.78759 30.815 6.28276 30.122 5.45069C30.0619 5.37868 29.9062 5.37474 29.792 5.35473C28.443 5.11798 27.4819 5.974 27.473 7.46824C27.4567 10.2363 27.4677 13.0045 27.4676 15.7726C27.4676 17.7831 27.456 19.7937 27.4729 21.8041C27.4843 23.1538 28.0821 23.8599 29.1774 23.8865C30.4732 23.9179 31.1675 23.3044 31.201 22.0199C31.2345 20.7399 31.2084 19.4585 31.2084 18.1016C34.1203 18.896 34.8595 18.9605 36.312 18.566C40.1146 17.5328 42.3 13.6912 41.1826 10.0036ZM34.3982 15.171C32.9106 15.1901 31.2201 14.0091 31.2248 11.9399C31.2291 10.1103 32.6713 8.79582 34.5825 8.81477C36.4625 8.83337 37.7337 10.1344 37.7176 12.0237C37.7015 13.9108 36.3613 15.1461 34.3982 15.171Z" fill="#212121"/>
<path d="M72.5739 8.87743C72.5738 6.51815 72.5902 4.15861 72.5669 1.7995C72.5535 0.459562 71.4383 -0.297243 70.1506 0.110346C69.3197 0.373306 68.8697 1.124 68.8515 2.34817C68.8341 3.50987 68.8477 4.67204 68.8477 5.9188C68.6158 5.85072 68.5309 5.83494 68.4538 5.80184C65.6361 4.59126 63.0317 5.05996 60.8375 7.04659C58.7069 8.97557 58.0877 11.4535 59.0018 14.1801C60.2779 17.9867 64.7681 19.8204 68.5411 18.1434C68.8032 18.0269 69.0807 17.7336 69.4137 18.085C70.0363 18.7421 70.8044 18.8423 71.5914 18.4546C72.3997 18.0562 72.5844 17.3133 72.5794 16.4797C72.5644 13.9456 72.574 11.4116 72.5739 8.87743ZM68.8315 11.9475C68.838 13.8396 67.5069 15.1616 65.5951 15.1615C63.7478 15.1613 62.4374 13.8128 62.338 12.003C62.2497 10.3936 63.8671 8.74122 65.6208 8.77856C67.4452 8.81743 68.9279 10.2861 68.8315 11.9475Z" fill="#212121"/>
<path d="M54.9464 13.2153C56.2696 13.2108 57.1831 12.1906 56.963 10.9384C56.107 6.06988 50.8096 3.57444 46.3982 6.24491C43.8971 7.75891 42.8735 10.1202 43.2475 12.939C43.6041 15.6261 45.2382 17.4693 47.8174 18.3969C50.4603 19.3476 53.2627 18.647 54.9894 16.8309C55.564 16.2266 55.6892 15.4424 55.263 14.8543C54.7818 14.1903 54.1207 14.1631 53.3663 14.3958C52.8256 14.5626 52.3542 14.8527 51.839 15.0592C50.0119 15.7908 47.9573 15.1837 47.2822 13.218C49.8907 13.218 52.4186 13.2243 54.9464 13.2153ZM50.4153 8.84851C51.4755 8.9508 52.3432 9.39731 52.9542 10.4502H47.2898C48.0745 9.28954 49.0714 8.7188 50.4153 8.84851Z" fill="#222121"/>
</svg>
