<svg width="40" height="40" viewBox="0 0 40 40" fill="none" xmlns="http://www.w3.org/2000/svg">
<path d="M27.2656 1.90625L25.9766 2.55469L21.4844 3.51563C19.0156 4.03907 16.9844 4.47657 16.9766 4.48438C16.9688 4.49219 16.6563 6.15625 16.2891 8.1875L15.6094 11.875L16.0078 13.5938L16.3984 15.3047L15.8203 15.8906C14.875 16.8516 14.3828 18.0703 14.375 19.4297V20H10.8516C8.55469 20 7.28125 20.0313 7.17969 20.0781C6.99219 20.1875 4.375 25.3906 4.375 25.6641C4.375 25.7734 4.46094 25.9531 4.57031 26.0547C4.75 26.2422 4.79688 26.25 5.82031 26.25H6.875V32.3047V38.3672L7.07031 38.5547L7.25781 38.75H20H32.7422L32.9297 38.5547L33.125 38.3672V32.3047V26.25H34.1797C35.2031 26.25 35.25 26.2422 35.4297 26.0547C35.5391 25.9531 35.625 25.7734 35.625 25.6641C35.625 25.3906 33.0078 20.1875 32.8203 20.0781C32.7188 20.0313 31.2578 20 28.5313 20H24.3984L24.3516 19.1953C24.3203 18.6172 24.2578 18.2422 24.1016 17.8125C23.9922 17.4922 23.875 17.1641 23.8516 17.0938C23.8281 17.0078 24.3359 16.2656 25.3906 14.8672C26.2656 13.7188 27.0391 12.6953 27.125 12.6094C27.25 12.4688 27.5703 12.3906 29.1094 12.1406C30.1172 11.9766 30.9766 11.8203 31.0078 11.7969C31.0469 11.7734 31.6797 10.5547 32.4141 9.08594L33.75 6.40625V3.82813V1.25L31.1563 1.25782H28.5547L27.2656 1.90625ZM32.5 4.29688V6.09375L31.3594 8.38282C30.7344 9.63282 30.2109 10.6719 30.2031 10.6797C30.1953 10.6953 29.3594 10.8359 28.3594 11L26.5234 11.3047L24.4375 14.0703C23.2891 15.5938 22.2578 16.9141 22.1484 17.0078C22 17.1406 21.8438 17.1875 21.5859 17.1875C21.2813 17.1875 21.1953 17.1484 20.9297 16.8828C20.5469 16.5078 20.5234 16.1875 20.8438 15.7266C20.9609 15.5547 21.9688 14.2109 23.0859 12.7344C24.2031 11.2578 25.1172 10.0391 25.1172 10.0234C25.1172 10 24.75 9.42969 24.2969 8.74219L23.4766 7.5H21.4688C20.3594 7.5 19.4531 7.51563 19.4531 7.53907C19.4531 7.57032 19.2891 8.55469 19.0938 9.73438L18.7344 11.875L18.9375 13.0938C19.0547 13.7656 19.1328 14.3281 19.125 14.3359C19.1094 14.3438 18.8203 14.4141 18.4766 14.4922C18.1328 14.5625 17.7813 14.6406 17.6953 14.6641C17.5469 14.6953 17.5078 14.5859 17.2109 13.2656L16.8828 11.8359L17.4531 8.72657C17.7656 7.01563 18.0547 5.59375 18.0938 5.55469C18.1328 5.52344 20.0078 5.10157 22.2656 4.61719L26.3672 3.74219L27.6172 3.13282L28.8672 2.51563L30.6875 2.50782L32.5 2.5V4.29688ZM23.1953 9.36719L23.6016 9.98438L22.0313 12.0703C21.1641 13.2109 20.4375 14.1328 20.4219 14.1172C20.3984 14.0938 20.2969 13.5859 20.1953 12.9766L20.0078 11.875L20.2422 10.4922C20.3672 9.72657 20.4844 9.02344 20.5078 8.92188C20.5469 8.75 20.5703 8.75 21.6719 8.75H22.7891L23.1953 9.36719ZM19.4063 16.0391C19.375 16.3281 19.3984 16.6016 19.4844 16.9141C19.6641 17.5156 20.25 18.1172 20.8516 18.3203C21.3906 18.4922 22.1094 18.4531 22.5547 18.2266L22.8828 18.0547L22.9688 18.3438C23.3516 19.6719 22.9453 21.1328 21.9453 22.0625L21.4766 22.5H19.375H17.2734L16.8125 22.0703C15.25 20.625 15.2422 18.1719 16.8047 16.6797C17.4531 16.0547 18.3672 15.6641 19.2031 15.6328L19.4531 15.625L19.4063 16.0391ZM14.8047 21.3984C14.8281 21.4766 14.9844 21.7578 15.1563 22.0234L15.4688 22.5H13.9844H12.5V23.125V23.75H20H27.5V23.125V22.5H25.3906H23.2813L23.5938 22.0234C23.7656 21.7578 23.9219 21.4766 23.9453 21.3984C23.9922 21.2578 24.1328 21.25 28.0547 21.25H32.1094L33.0469 23.125L33.9844 25H20H6.01563L6.95313 23.125L7.89063 21.25H11.3203C14.625 21.25 14.7578 21.2578 14.8047 21.3984ZM31.875 31.875V37.5H20H8.125V31.875V26.25H20H31.875V31.875Z" fill="#c41230"/>
<path d="M17.4609 28.3438C15.8047 28.9219 15.125 30.7266 16.0469 32.1172C16.1562 32.2813 17.0391 33.1406 18.0078 34.0234C20.0312 35.8594 19.9922 35.8438 20.6094 35.2969C24.125 32.1406 24.2891 31.9453 24.3594 30.8984C24.4219 29.8594 23.8906 28.9844 22.9062 28.5C22.4531 28.2734 22.2891 28.2422 21.6719 28.2188C21.0547 28.1953 20.8906 28.2188 20.4766 28.3828L20 28.5781L19.5469 28.3906C18.9844 28.1563 18.0547 28.1406 17.4609 28.3438ZM19.4062 29.7266C19.9219 30.0391 20.1328 30.0625 20.3984 29.8516C20.7812 29.5625 21.0859 29.4531 21.5625 29.4531C22.7031 29.4531 23.4375 30.3828 23.0078 31.2813C22.9375 31.4219 22.3906 31.9844 21.7734 32.5469C21.1641 33.1016 20.5156 33.6875 20.3359 33.8516L20.0078 34.1563L18.6172 32.8906C16.8984 31.3281 16.6875 30.9844 16.9844 30.2891C17.2109 29.7578 17.7266 29.4609 18.4453 29.4531C18.8906 29.4531 19.0078 29.4844 19.4062 29.7266Z" fill="#c41230"/>
<path d="M26.875 35.625V36.25H27.5H28.125V35.625V35H27.5H26.875V35.625Z" fill="#c41230"/>
<path d="M29.375 35.625V36.25H30H30.625V35.625V35H30H29.375V35.625Z" fill="#c41230"/>
</svg>
