<svg width="40" height="40" viewBox="0 0 40 40" fill="none" xmlns="http://www.w3.org/2000/svg">
<path d="M11.8906 1.35156C11.5312 1.46093 10.9922 1.96093 10.8281 2.32812C10.6953 2.61718 10.6641 2.64062 10.4922 2.57031C9.50781 2.19531 8.125 3.20312 8.125 4.28906C8.125 4.44531 8.09375 4.45312 7.70312 4.40625C7.15625 4.34375 6.59375 4.52343 6.21875 4.89062C5.625 5.46875 5.66406 5.00781 5.64062 11.3437L5.61719 17.0234L6.25 18.2734L6.875 19.5312V28.9453V38.3672L7.07031 38.5547L7.25781 38.75H11.25H15.2422L15.4297 38.5547L15.625 38.3672V28.9453V19.5312L16.1797 18.4141L16.7344 17.3047L18.7109 15.3125C19.7969 14.2187 20.7422 13.2031 20.8203 13.0547C20.9922 12.7109 21.0547 12.0703 20.9453 11.6719C20.8203 11.1953 20.4688 10.7734 19.9922 10.5078C19.6406 10.3203 19.4844 10.2734 19.0625 10.2812C18.4219 10.2812 18.0391 10.4687 17.3672 11.1172L16.875 11.5859V7.85156C16.875 5.14843 16.8516 4.03125 16.7812 3.79687C16.6562 3.36718 16.0078 2.71875 15.5781 2.59375C15.1953 2.48437 14.7656 2.47656 14.5078 2.57031C14.3359 2.64062 14.3047 2.61718 14.1719 2.32812C14 1.9375 13.4609 1.46093 13.0625 1.34375C12.6953 1.23437 12.2422 1.23437 11.8906 1.35156ZM12.9297 2.69531L13.125 2.88281V7.07031V11.25H13.75H14.375V7.69531V4.13281L14.5703 3.94531C14.6875 3.82031 14.8516 3.75 15 3.75C15.1484 3.75 15.3125 3.82031 15.4297 3.94531L15.625 4.13281V8.21093V12.2812L15.2656 12.2266C13.3516 11.9453 11.7109 12.6406 11.0625 14.0156C10.8516 14.4609 10.625 15.4531 10.625 15.9375V16.25H11.2422H11.8516L11.9062 15.75C12.0156 14.6797 12.3906 14.0078 13.0781 13.6562C13.5625 13.3984 14.6875 13.3672 15.5469 13.5859C15.9062 13.6797 16.2734 13.75 16.3594 13.75C16.4531 13.75 16.9453 13.3203 17.6328 12.6406C18.7109 11.5703 18.7656 11.5234 19.0703 11.5234C19.4609 11.5234 19.7656 11.8203 19.7656 12.2109C19.7656 12.4219 19.5312 12.6953 17.7422 14.4922L15.7188 16.5234L15.0469 17.8672L14.375 19.2187V28.3594V37.5H11.25H8.125V28.3594V19.2187L7.5 17.9687L6.875 16.7187V11.3672V6.00781L7.07031 5.82031C7.32031 5.5625 7.67969 5.5625 7.92969 5.82031L8.125 6.00781V8.63281V11.25H8.75H9.375V7.69531V4.13281L9.57031 3.94531C9.82031 3.6875 10.1797 3.6875 10.4297 3.94531L10.625 4.13281V7.38281V10.625H11.25H11.875V6.75781V2.88281L12.0703 2.69531C12.1875 2.57031 12.3516 2.5 12.5 2.5C12.6484 2.5 12.8125 2.57031 12.9297 2.69531Z" fill="#c41230"/>
<path d="M21.1094 15.9375C19.0078 16.4922 17.5625 18.125 17.5547 19.9609C17.5547 21.3125 17.8984 21.9062 19.7812 23.8047L21.1953 25.2188L20.8984 26.7344L20.6094 28.2422L21.5547 30.7344L22.5 33.2266V35.7969V38.3672L22.6953 38.5547L22.8828 38.75H26.5625H30.2422L30.4297 38.5547L30.625 38.3672V35.8125V33.2656L31.875 30.4531C32.5625 28.9062 33.125 27.5547 33.125 27.4609C33.125 27.3516 32.6953 26.75 31.9844 25.8594L30.8438 24.4375L31.9688 23.2969C33.1484 22.0859 33.3984 21.7188 33.6328 20.8125C33.8438 19.9922 33.7422 19.2031 33.2969 18.2969C32.8438 17.3672 31.7734 16.4922 30.5547 16.0703C30 15.875 29.7266 15.8281 28.9766 15.7969C27.9062 15.7578 27.125 15.9219 26.2031 16.375L25.625 16.6562L24.9844 16.3438C24.625 16.1719 24.1016 15.9766 23.8203 15.9062C23.1094 15.7344 21.8359 15.75 21.1094 15.9375ZM23.9453 17.25C24.2031 17.3438 24.6484 17.5781 24.9297 17.7734C25.2109 17.9688 25.5234 18.125 25.625 18.125C25.7266 18.125 26.0391 17.9688 26.3203 17.7734C27.0469 17.2812 27.6172 17.0938 28.5234 17.0469C29.4297 17.0078 29.9375 17.1016 30.6719 17.4688C32.0703 18.1562 32.75 19.4531 32.3594 20.6875C32.1719 21.2812 31.9297 21.5938 30.8438 22.6484L30 23.4688L29.125 22.6094C28.4297 21.9297 28.1641 21.7188 27.8594 21.6172C26.9219 21.2969 25.9844 21.6406 25.4922 22.4844C25.3047 22.7969 25.2734 22.9375 25.2734 23.4375C25.2734 24.2031 25.375 24.3672 26.3984 25.4141L27.2188 26.2578L26.4219 27.0547L25.625 27.8516L22.4609 24.6875C19.6953 21.9297 19.2578 21.4609 19.0469 21.0234C18.8438 20.6172 18.7969 20.4297 18.7969 20.0078C18.7969 18.7422 19.8516 17.5859 21.3828 17.1406C21.9609 16.9766 23.3594 17.0391 23.9453 17.25ZM27.6562 22.9453C27.7812 23.0703 28.7656 24.1641 29.8281 25.3828L31.7734 27.5938L30.5781 30.2891L29.375 32.9844V35.2422V37.5H26.5625H23.75V35.25V33.0078L22.8203 30.5391L21.8906 28.0703L22.0469 27.2969C22.125 26.875 22.2109 26.4766 22.2344 26.4141C22.2578 26.3359 22.8047 26.8359 23.8125 27.8359C25.2109 29.2266 25.3828 29.375 25.625 29.375C25.8594 29.375 26.0078 29.25 27.0078 28.2656L28.125 27.1562L28.5 27.5234C28.7031 27.7266 28.9062 27.8906 28.9453 27.8906C28.9844 27.8906 29.2031 27.7109 29.4297 27.4844L29.8438 27.0781L28.1641 25.3906C26.6641 23.8828 26.4844 23.6797 26.4844 23.4453C26.4844 23.2656 26.5547 23.125 26.7109 22.9609C27.0078 22.6641 27.3359 22.6562 27.6562 22.9453Z" fill="#c41230"/>
<path d="M21.9922 18.1484C20.8359 18.4453 20.1484 19.1797 20.0234 20.2344L19.9766 20.625H20.6016H21.2266L21.2813 20.3281C21.3828 19.6719 21.8984 19.3672 22.9688 19.3281L23.6328 19.3047L23.7422 18.7578C23.8047 18.4531 23.8359 18.1797 23.8047 18.1484C23.7031 18.0469 22.3906 18.0469 21.9922 18.1484Z" fill="#c41230"/>
</svg>
