<svg width="40" height="40" viewBox="0 0 40 40" fill="none" xmlns="http://www.w3.org/2000/svg">
<path d="M16.8906 1.35156C16.5312 1.46094 15.9922 1.96094 15.8281 2.32812C15.6953 2.61719 15.6641 2.64062 15.4922 2.57031C14.9297 2.35938 14.2344 2.5625 13.7109 3.08594C13.2344 3.55469 13.125 3.875 13.125 4.79688V5.46875L12.5 6.71875L11.875 7.96875V10.0469V12.1328L12.1797 12.4141C12.3516 12.5703 13.3359 13.4141 14.3672 14.2969L16.2422 15.8984L16.25 27.1328V38.3672L16.4453 38.5547L16.6328 38.75H20.3125H23.9922L24.1797 38.5547L24.375 38.3672V21.8672C24.375 9.14062 24.3516 5.29688 24.2812 5.04688C24.1562 4.61719 23.5078 3.96875 23.0781 3.84375C22.6953 3.73438 22.2656 3.72656 22.0078 3.82031C21.8359 3.89062 21.8047 3.86719 21.6719 3.57812C21.3203 2.79688 20.2422 2.29688 19.5078 2.57031C19.3359 2.64062 19.3047 2.61719 19.1719 2.32812C19 1.9375 18.4609 1.46094 18.0625 1.34375C17.6953 1.23438 17.2422 1.23438 16.8906 1.35156ZM17.9297 2.69531C18.1094 2.875 18.125 2.9375 18.125 3.72656V4.57031L17.5 4.57812H16.875V3.73438C16.875 2.9375 16.8828 2.875 17.0703 2.69531C17.1875 2.57031 17.3516 2.5 17.5 2.5C17.6484 2.5 17.8125 2.57031 17.9297 2.69531ZM15.4297 3.94531C15.5703 4.07812 15.625 4.21875 15.625 4.44531V4.75781L15.2578 4.80469C15.0469 4.82812 14.7656 4.86719 14.6328 4.89062L14.375 4.92969V4.53125C14.375 4.04688 14.6094 3.75 15 3.75C15.1484 3.75 15.3125 3.82031 15.4297 3.94531ZM20.4297 3.94531L20.625 4.13281V6.875V9.61719L20.4297 9.80469C20.3125 9.92969 20.1484 10 20 10C19.8516 10 19.6875 9.92969 19.5703 9.80469L19.375 9.61719V6.875V4.13281L19.5703 3.94531C19.6875 3.82031 19.8516 3.75 20 3.75C20.1484 3.75 20.3125 3.82031 20.4297 3.94531ZM22.9297 5.19531L23.125 5.38281V7.5V9.61719L22.9297 9.80469C22.8125 9.92969 22.6484 10 22.5 10C22.3516 10 22.1875 9.92969 22.0703 9.80469L21.875 9.61719V7.5V5.38281L22.0703 5.19531C22.1875 5.07031 22.3516 5 22.5 5C22.6484 5 22.8125 5.07031 22.9297 5.19531ZM17.9844 5.91406C18.1641 6.07031 18.1641 6.34375 17.9922 6.5C17.9141 6.57031 17.3906 6.85938 16.8203 7.14062C16.25 7.42188 15.75 7.71875 15.7031 7.80469C15.6562 7.89844 15.625 8.55469 15.625 9.41406V10.8672L15.8281 11.0703C16.0078 11.25 16.0625 11.2656 16.3906 11.2031C17.0469 11.0859 17.8203 11.125 18.2031 11.3047C18.875 11.6094 19.5625 12.5078 19.8828 13.4922C19.9531 13.7188 20.0312 13.9062 20.0547 13.9062C20.0703 13.9062 20.3516 13.8281 20.6641 13.7422L21.2422 13.5703L21.0156 12.9453C20.8828 12.6016 20.6406 12.0938 20.4688 11.8125C20.1406 11.2969 20.1406 11.1797 20.4688 11.1719C20.5312 11.1719 20.7422 11.0859 20.9219 10.9766C21.2578 10.7812 21.2656 10.7812 21.4688 10.9297C21.8125 11.1641 22.2578 11.2734 22.7031 11.2266L23.125 11.1797V24.3438V37.5H20.3125H17.5V26.4297V15.3672L17.1953 15.0859C17.0234 14.9297 16.0391 14.0859 15.0078 13.2031L13.1328 11.6016L13.125 9.94531V8.28125L13.6406 7.24219L14.1641 6.20312L15.6953 6C17.6016 5.75781 17.8047 5.75 17.9844 5.91406ZM18.1641 9.89844C18.1641 9.90625 17.875 9.89062 17.5156 9.86719L16.875 9.82031V9.17188V8.51562L17.4844 8.21094L18.0859 7.90625L18.125 8.89844C18.1484 9.4375 18.1641 9.89062 18.1641 9.89844Z" fill="#c41230"/>
<path d="M31.8906 8.85156C31.5312 8.96094 30.9922 9.46094 30.8281 9.82812C30.6953 10.1172 30.6641 10.1406 30.4922 10.0703C29.7578 9.79688 28.6797 10.2969 28.3281 11.0781C28.1953 11.3672 28.1641 11.3906 27.9922 11.3203C27.7344 11.2266 27.3047 11.2344 26.9219 11.3438C26.4922 11.4688 25.8438 12.1172 25.7188 12.5469C25.6484 12.7969 25.625 15.8359 25.625 25.6172V38.3672L25.8203 38.5547L26.0078 38.75H29.6875H33.3672L33.5547 38.5547L33.75 38.3672V30.8828V23.4062L35.625 21.5234L37.5 19.6406V17.5938V15.5391L37.1875 14.2969C36.9375 13.2969 36.875 12.9141 36.875 12.3359C36.875 11.375 36.7734 11.0625 36.2891 10.5859C35.7656 10.0625 35.0703 9.85938 34.5078 10.0703C34.3359 10.1406 34.3047 10.1172 34.1719 9.82812C34 9.4375 33.4609 8.96094 33.0625 8.84375C32.6953 8.73438 32.2422 8.73438 31.8906 8.85156ZM32.9297 10.1953C33.1172 10.375 33.125 10.4375 33.125 11.2344V12.0781H32.5L31.875 12.0703V11.2266C31.875 10.4375 31.8906 10.375 32.0703 10.1953C32.1875 10.0703 32.3516 10 32.5 10C32.6484 10 32.8125 10.0703 32.9297 10.1953ZM30.4297 11.4453L30.625 11.6328V14.375V17.1172L30.4297 17.3047C30.3125 17.4297 30.1484 17.5 30 17.5C29.8516 17.5 29.6875 17.4297 29.5703 17.3047L29.375 17.1172V14.375V11.6328L29.5703 11.4453C29.6875 11.3203 29.8516 11.25 30 11.25C30.1484 11.25 30.3125 11.3203 30.4297 11.4453ZM35.4297 11.4453C35.5859 11.5938 35.625 11.7109 35.625 12.0312C35.625 12.4297 35.625 12.4375 35.4141 12.3906C35.2891 12.3672 35.0078 12.3281 34.7891 12.3047L34.375 12.25V11.9453C34.375 11.5547 34.6484 11.25 35 11.25C35.1484 11.25 35.3125 11.3203 35.4297 11.4453ZM27.9297 12.6953L28.125 12.8828V15V17.1172L27.9297 17.3047C27.8125 17.4297 27.6484 17.5 27.5 17.5C27.3516 17.5 27.1875 17.4297 27.0703 17.3047L26.875 17.1172V15V12.8828L27.0703 12.6953C27.1875 12.5703 27.3516 12.5 27.5 12.5C27.6484 12.5 27.8125 12.5703 27.9297 12.6953ZM34.1328 13.4844C35.0156 13.5938 35.7422 13.6953 35.75 13.7031C35.7578 13.7031 35.8672 14.1562 36 14.7031C36.2422 15.6641 36.25 15.7578 36.25 17.3984V19.0938L34.375 20.9766L32.5 22.8594V30.1797V37.5H29.6875H26.875V28.0938V18.6797L27.2969 18.7266C27.7422 18.7734 28.1875 18.6641 28.5312 18.4297C28.7344 18.2812 28.7422 18.2812 29.0781 18.4766C29.2578 18.5859 29.4688 18.6719 29.5312 18.6719C29.8594 18.6797 29.8594 18.7969 29.5312 19.3125C29.3594 19.5938 29.1172 20.1016 28.9844 20.4453L28.7578 21.0703L29.3516 21.2422C29.9609 21.4219 30.0703 21.3984 30.0781 21.1016C30.0781 20.8203 30.7188 19.6953 31.0859 19.3203C31.7578 18.6406 32.3828 18.4922 33.6875 18.7188C33.9297 18.7578 34.0078 18.7344 34.1719 18.5625L34.375 18.3672V16.9141C34.375 16.0547 34.3438 15.3984 34.2969 15.3047C34.25 15.2188 33.75 14.9219 33.1797 14.6406C32.6094 14.3594 32.0859 14.0703 32.0156 14C31.7344 13.7578 31.9453 13.2812 32.3281 13.2812C32.4375 13.2812 33.2422 13.375 34.1328 13.4844ZM33.125 16.6719V17.3203L32.4844 17.3672C32.125 17.3906 31.8359 17.4062 31.8359 17.3984C31.8359 17.3906 31.8438 16.9375 31.8594 16.3906L31.8906 15.3984L32.5078 15.7031L33.125 16.0156V16.6719Z" fill="#c41230"/>
<path d="M7.51562 13.2266C7.15625 13.3359 6.61719 13.8359 6.45312 14.2031C6.32031 14.4922 6.28906 14.5156 6.11719 14.4453C5.55469 14.2344 4.85938 14.4375 4.33594 14.9609C3.85938 15.4297 3.75 15.75 3.75 16.6719V17.3437L3.125 18.5937L2.5 19.8437V21.9219V24.0078L2.80469 24.2891C2.97656 24.4453 3.96094 25.2891 4.99219 26.1719L6.86719 27.7734L6.875 33.0703V38.3672L7.07031 38.5547L7.25781 38.75H10.9375H14.6172L14.8047 38.5547L15 38.3672V27.8047C15 19.7422 14.9766 17.1719 14.9062 16.9219C14.7812 16.4922 14.1328 15.8437 13.7031 15.7187C13.3203 15.6094 12.8906 15.6016 12.6328 15.6953C12.4609 15.7656 12.4297 15.7422 12.2969 15.4531C11.9453 14.6719 10.8672 14.1719 10.1328 14.4453C9.96094 14.5156 9.92969 14.4922 9.79688 14.2031C9.625 13.8125 9.08594 13.3359 8.6875 13.2187C8.32031 13.1094 7.86719 13.1094 7.51562 13.2266ZM8.55469 14.5703C8.73438 14.75 8.75 14.8125 8.75 15.6016V16.4453L8.125 16.4531H7.5V15.6094C7.5 14.8125 7.50781 14.75 7.69531 14.5703C7.8125 14.4453 7.97656 14.375 8.125 14.375C8.27344 14.375 8.4375 14.4453 8.55469 14.5703ZM6.05469 15.8203C6.19531 15.9531 6.25 16.0937 6.25 16.3203V16.6328L5.88281 16.6797C5.67188 16.7031 5.39062 16.7422 5.25781 16.7656L5 16.8047V16.4062C5 15.9219 5.23438 15.625 5.625 15.625C5.77344 15.625 5.9375 15.6953 6.05469 15.8203ZM11.0547 15.8203L11.25 16.0078V18.75V21.4922L11.0547 21.6797C10.9375 21.8047 10.7734 21.875 10.625 21.875C10.4766 21.875 10.3125 21.8047 10.1953 21.6797L10 21.4922V18.75V16.0078L10.1953 15.8203C10.3125 15.6953 10.4766 15.625 10.625 15.625C10.7734 15.625 10.9375 15.6953 11.0547 15.8203ZM13.5547 17.0703L13.75 17.2578V19.375V21.4922L13.5547 21.6797C13.4375 21.8047 13.2734 21.875 13.125 21.875C12.9766 21.875 12.8125 21.8047 12.6953 21.6797L12.5 21.4922V19.375V17.2578L12.6953 17.0703C12.8125 16.9453 12.9766 16.875 13.125 16.875C13.2734 16.875 13.4375 16.9453 13.5547 17.0703ZM8.60938 17.7891C8.78906 17.9453 8.78906 18.2187 8.61719 18.375C8.53906 18.4453 8.01562 18.7344 7.44531 19.0156C6.875 19.2969 6.375 19.5937 6.32812 19.6797C6.28125 19.7734 6.25 20.4297 6.25 21.2891V22.7422L6.45312 22.9453C6.63281 23.125 6.6875 23.1406 7.01562 23.0781C7.67188 22.9609 8.44531 23 8.82812 23.1797C9.5 23.4844 10.1875 24.3828 10.5078 25.3672C10.5781 25.5937 10.6562 25.7812 10.6797 25.7812C10.6953 25.7812 10.9766 25.7031 11.2891 25.6172L11.8672 25.4453L11.6406 24.8203C11.5078 24.4766 11.2656 23.9687 11.0938 23.6875C10.7656 23.1719 10.7656 23.0547 11.0938 23.0469C11.1562 23.0469 11.3672 22.9609 11.5469 22.8516C11.8828 22.6562 11.8906 22.6562 12.0938 22.8047C12.4375 23.0391 12.8828 23.1484 13.3281 23.1016L13.75 23.0547V30.2812V37.5H10.9375H8.125V32.3672V27.2422L7.82031 26.9609C7.64844 26.8047 6.66406 25.9609 5.63281 25.0781L3.75781 23.4766L3.75 21.8203V20.1562L4.26562 19.1172L4.78906 18.0781L6.35938 17.875C8.29688 17.6328 8.42969 17.625 8.60938 17.7891ZM8.78906 21.7734C8.78906 21.7812 8.5 21.7656 8.14062 21.7422L7.5 21.6953V21.0469V20.3906L8.10938 20.0859L8.71094 19.7812L8.75 20.7734C8.77344 21.3125 8.78906 21.7656 8.78906 21.7734Z" fill="#c41230"/>
</svg>
